<?xml version="1.0" encoding="utf-8"?>
<!-- Generator: Adobe Illustrator 17.0.0, SVG Export Plug-In . SVG Version: 6.00 Build 0)  -->
<!DOCTYPE svg PUBLIC "-//W3C//DTD SVG 1.1//EN" "http://www.w3.org/Graphics/SVG/1.1/DTD/svg11.dtd">
<svg version="1.1" id="track" xmlns="http://www.w3.org/2000/svg" xmlns:xlink="http://www.w3.org/1999/xlink" x="0px" y="0px"
	 width="485px" height="713px" viewBox="0 0 485 713" enable-background="new 0 0 485 713" xml:space="preserve">
 	<defs>
  		<link href="map.css" type="text/css" rel="stylesheet" xmlns="http://www.w3.org/1999/xhtml"/>
 	  <style type="text/css">
 			<![CDATA[
 				@font-face {
 				    font-family:OpenSans;
 				    src: url('fonts/OpenSans-Regular.ttf');
 				}
 			]]>
 		 </style>
   </defs>
	<path class="track-1" fill="none" stroke="#939393" stroke-miterlimit="10" d="M64.816,9.882c1.345-0.922,3.621-2.093,5.089-2.551
		c1.933-0.582,3.813,0.75,5.792,0.641c4.122-0.153,8.495-1.047,10.444,3.539c0.717,1.682,1.119,3.392,2.066,4.972
		c1.041,1.73,2.461,3.264,2.577,5.321c0,0,0.344,2.755,0.322,2.951c-0.351,3.149,2.57,4.407,2.013,7.323
		c-0.231,1.333-0.98,2.241-0.845,3.658c0.146,1.538,0.676,2.084,0.114,3.688c-0.671,1.733-1.358,2.037-0.574,3.991
		c0.489,1.385,1.397,2.134,2.434,2.988c2.568,1.902,5.261,2.602,8.213,3.512c2.457,0.72,5.831,2.308,8.051,0.548
		c2.328-1.893,5.295-7.066,6.417-1.566c0.649,3.039,2.604,4.666,5.268,6.416c4.046,2.656,11.085-1.114,12.716,1.89
		c1.168,2.152,2.874,5.094,3.916,7.262c1.477,2.961,2.104,5.764,2.171,8.978c0.017,1.428-0.203,2.881,0.062,4.407
		c0.277,1.644,1.185,2.392,2.385,3.709c1.07,1.211,2.034,2.55,3.222,3.749c1.331,1.424,1.721,2.699,2.029,3.743
		s1.739,3.832,2.192,4.205c0.773,0.582,1.15,2.038,1.424,3.026c0.65,2.443,1.367,4.939,2.249,7.3c1.186,3.048,1.579,6.53,2.99,9.438
		c0.663,1.308,3.378,0.99,3.145,2.92c-0.158,0.851-1.585,1.587-0.803,2.224c0.592,0.481,1.508,0.644,2.054,0.877
		c0.685,0.294,0.661,1.288,0.245,1.774c-0.303,0.354-1.134,1.413-2.085,2.696c-0.738,1.024-0.967,2.357-1.567,3.607
		c-1.385,2.995-2.122,4.019-5.271,4.796c-1.859,0.536-2.203,0.686-2.118,2.826c0.006,1.312,0.152,2.848,0.632,4.115
		c1.099,2.757,3.167,5.663,4.61,8.269c1.441,2.607,3.702,5.016,5.477,7.351c1.764,2.218,4.91,4.133,5.431,6.879
		c0.241,1.26-1.188,5.361-1.389,6.692c-0.202,1.332-0.293,4.442-0.326,6.593c-0.045,2.031-0.67,4.237-1.317,6.207
		c-1.358,4.543-2.737,8.85-2.286,13.578c0.283,2.954,2.425,5.375,3.062,8.296c0.834,3.738-2.033,4.966-3.17,8.055
		c-0.586,1.368-0.45,2.787-0.552,4.229c-0.174,1.924-1.042,2.841-1.83,4.586c-0.812,1.508-1.611,3.136-2.057,4.729
		c-0.478,1.238-1.164,4.048-1.164,4.048s-0.919,2.562-0.349,3.85c0.57,1.287,0.851,5.168,1.195,7.519
		c0.401,2.944,1.167,5.973,1.687,8.904c0.541,3.171,2.126,6.001,2.548,9.183c0.834,6.243-3.486,12.258-6.324,17.539
		c-3.468,6.175-8.284,9.497-13.32,14.269c-2.389,2.494-3.594,4.875-5.356,7.666c-1.871,2.923-4.907,4.882-6.918,7.578l-1.199,1.188
		c-1.831,2.083-4.653,3.783-6.906,5.188c-2.81,1.819-3.718,3.575-5.61,6.261c-1.796,2.436-5.17,3.353-7.92,4.57
		c-2.62,1.323-4.823,2.011-7.267,3.913c-2.991,2.434-5.464,5.291-8.314,7.948c-0.665,0.54-1.449,1.092-1.853,1.847
		c-0.394,0.874-0.101,1.441-0.53,1.957c-0.844,1.157-3.048,1.845-4.174,2.547c-2.809,1.819-4.9,3.686-8.004,4.937
		c-3.448,1.403-3.864,4.542-4.269,7.801c-0.963,6.174-5.615,12.462-11.219,15.023c-2.974,1.358-5.949,2.714-7.948,5.528
		c-1.369,1.917-4.292,6.172-2.449,8.105c1.458,1.531,0.697,2.548,0.327,3.427c-1.543,3.681-1.143,6.792-1.75,10.424
		c-0.45,2.789-1.622,5.522-2.19,8.319c-0.544,3.036-2.984,6.252-2.195,9.515c0.372,1.394,1.184,2.392,1.094,3.952
		c-0.078,1.676-0.806,2.82-0.872,4.614c-0.18,3.119-0.479,6.25-1.886,9.007c-0.823,1.39-1.786,2.555-1.522,4.082
		c0.124,1.298,1.195,2.508,1.675,3.775c1.228,2.864,3.668,4.66,5.348,7.242c1.785,2.456,2.804,4.385,2.022,7.441
		c-0.337,1.464-1.536,2.653-1.649,3.976c-0.124,1.204,0.542,3.168,0.666,4.47c0.125,1.301,0.141,2.73,0.384,4.017
		c0.334,2.237,0.091,3.452,1.906,4.95c2.604,2.255,5.184,4.279,8.321,5.887c1.63,0.8,3.99,1.769,5.094,3.332
		c0.694,1.006,0.734,2.674,2.029,3.743c1.049,0.976,2.631,1.303,3.894,2.015c1.272,0.834,2.321,1.808,3.713,2.628
		c2.641,1.419,5.165,2.851,6.857,5.553c1.83,2.927-1.064,5.11,0.388,7.835c1.433,2.487,4.351,5.549,6.948,6.495
		c1.489,0.574,3.144,0.417,4.621,0.873c1.487,0.574,2.118,2.181,3.454,2.413l1.414,1.059c2.681,3.085,4.215,6.638,6.789,9.851
		c3.084,3.522,5.895,6.714,9.833,9.203c2.676,1.775,5.33,3.309,6.924,6.26c1.314,2.497,2.402,5.139,3.726,7.756
		c1.562,2.597,3.726,5.253,5.749,7.684c1.891,2.327,3.432,4.684,5.003,7.396c0.727,1.363,1.692,2.701,2.975,3.652
		c1.414,1.058,3.116,1.373,4.197,2.702c2.023,2.429,2.521,5.127,2.92,8.071c0.424,3.178,2.469,5.846,5.658,6.736
		c2.939,0.794,5.817-0.316,8.709,1.199c5.887,2.9,10.783,7.921,12.588,14.31c0.919,3.372,1.731,6.87,4.249,9.493
		c1.72,1.745,3.381,2.9,4.896,5.022c1.092,1.445,2.412,2.751,3.612,4.068l5.531,7.764c1.613,1.6,2.888,2.749,4.466,4.27
		c0.871,0.791,1.633,1.274,1.36,2.571c-0.274,1.3-1.466,5.882-2.491,7.649c-1.102,1.777-3.152,2.195-3.508,4.298
		c-0.211,1.134-0.098,2.314-0.458,3.542c-0.225,0.978-0.943,2.573-1.161,3.631c-1.043,4.073-4.582,5.949-8.247,7.571
		c-1.682,0.717-3.382,1.547-5.064,2.265c-1.683,0.715-2.982-0.512-4.665,0.204c0,0-1.355,0.925-1.557,1.739
		c-0.164,0.668-1.21,1.068-2.038,1.146c-0.947,0.091-1.014-0.619-1.866-0.775c-1.442-0.103-2.912,0.755-4.31,1.126
		c-5.457,1.593-12.162,1.397-16.813,5.178c-1.212,1.071-1.273,2.389-2.885,3.019c-1.515,0.382-3.514-0.021-4.968-0.242
		c-2.789-0.453-5.197,1.452-6.747,3.985c-1.452,2.285-0.744,5.077-1.571,7.661c-0.935,2.709,0.282,5.46-0.191,8.009
		c-0.157,0.848-0.856,1.036-0.94,1.401c-0.181,0.615,0.113,1.183-0.186,1.808c-0.468,1.355-1.279,2.863-1.864,4.233
		c-1.077,2.487-3.318,5.428-5.854,6.389"/>

	<path class="track-2" fill="none" stroke="#939393" stroke-miterlimit="10" d="M221.86,122.569c2.342,3.671,7.904,1.076,11.109,2.998
		c1.016,0.618,0.846,1.349,2.252,1.058c0.773-0.234,1.359-0.766,2.125-1.078c1.461-0.537,3.361-0.639,3.512-2.402
		c0.182-1.449-1.752-5.002,0.668-4.675c2.166,0.19,3.76,3.538,4.635,0.194c0.441-2.029,0.041-3.741-0.391-5.767
		c-0.295-1.404-1.621-4.458-0.717-5.818c1.184-1.781,3.703-1.227,4.014-3.799c0.207-2.008,1.074-3.762,1.691-5.648
		c0.438-1.234,1.33-5.216,2.713-5.745c1.311-0.443,0.947,1.579,2.197,0.505c0.812-0.634,0.459-1.872,1.82-1.764
		c1.924,0.136,3.645,3.152,4.807,4.474c1.584,1.598,3.061,2.888,3.979,5.028c0.799,1.673,1.617,3.583,2.027,5.372
		c0.416,1.869-0.295,3.606,0.125,5.476l0.391,1.413c1.598,2.95,5.768,4.104,6.75,7.528c0.365,1.338,0.193,3.262,0.264,4.627
		c0.049,1.785,0.096,3.51,0.082,5.24c0.018,1.43,0.094,2.854,0.98,4.022c1.176,1.676,0.109,3.031,0.402,4.852
		c0.201,1.471,1.039,2.763,1.246,4.295c0.068,0.708,0.029,1.549,0.215,2.245c0.355,1.219,1.426,1.178,2.541,1.607
		c0.934,0.39,1.314,0.651,2.268,0.618c0.953-0.029,1.895-0.179,2.863-0.033c1.812,0.245,2.672,1.118,3.592,2.641
		c0.982,1.516,2.34,3.236,3.594,4.489c1.064,1.15,2.949,1.507,4.33,2.211c1.881,0.955,3.924,1.714,5.912,2.538
		c1.865,0.776,2.031,3.146,3.943,3.8c1.488,0.575,2.834-0.329,4.068-1.163c0.729-0.487,1.395-1.027,2.123-1.515
		c0.725-0.545,1.646-0.871,2.371-1.418l2.502-1.509c1.146-0.507,2.027-0.432,3.211-0.546c0.555-0.052,0.924-0.326,1.484-0.3
		c0.631-0.06,1.236,0.438,1.787,0.388c2.609-0.17,3.24-3.57,3.211-5.555c-0.035-1.19-0.197-2.049,0.25-3.205
		c0.432-1.314,1.383-2.2,1.57-3.568c0.291-1.937-0.6-3.759,0.428-5.528c2.262-3.793,8.035-0.843,8.768,2.666
		c0.178,1.016,0.355,2.032,0.842,2.941c0.678,1.287,1.555,1.283,2.789,1.721c2.479,0.957,4.17,3.659,5.57,5.832
		c1.213,1.874,1.518,4.229,3.396,5.562c1.877,1.332,3.627,2.994,5.355,4.42c0,0,2.895,3.015,3.707,3.714
		c0.812,0.697,4.307,2.792,4.664,3.123c1.031,0.951,2.119,2.183,3.377,2.859c0.834,0.397,1.738,0.71,2.582,1.187
		c2.027,1.238,2.588,2.934,3.193,5.103c0.59,2.012,1.18,4.021,1.928,6.019c0.848,2.226,2.918,3.063,3.99,5.108
		c1.686,3.498,1.461,7.812,2.768,11.505c0.764,2.154,2.061,3.224,0.844,5.486c-1.09,1.934-1.16,3.689-1.346,5.932
		c-0.246,4.08-1.621,8.028-2.758,11.954c-0.586,2.202,0.703,3.192,0.898,5.241c0.203,2.129-1.084,4.479-1.693,6.444
		c0,0-0.363,1.858-0.443,2.427c-0.059,0.423-0.568,1.964-0.729,2.376c-0.283,0.78-0.396,1.667-0.555,2.518
		c-0.225,1.413-0.527,2.834-0.867,4.257c-0.256,1.059-0.625,2.208-1.211,3.138c-0.279,0.423-0.754,0.865-0.988,1.327
		c-0.236,0.459-0.264,1.417-0.373,1.944c-0.273,1.298-0.508,2.592-0.824,3.854c-0.309,1.343-1.143,2.216-1.826,3.396
		c-1.096,1.853-1.418,4.309-1.695,6.401c-0.281,2.453-0.801,5.762-0.652,7.339c0.146,1.578,0.393,3.886,0.326,4.661
		c-0.203,2.376-1.881,5.31-4.426,6.146c-3.031,0.765-5.27-1.406-8.092,0.294c-2.479,1.547-5.373,3.733-6.285,6.683
		c-1.139,3.089-0.512,5.891-3.842,7.282c-1.375,0.609-2.521,1.075-3.355,2.348c-0.715,1.26-0.047,2.739-1.539,3.359l-0.986,0.222
		c-1.869,0.417-4.031,0.265-5.902,0.682c-1.988,0.428-3.531,1.764-5.641,2.207c-0.934,0.207-2.127,0.201-3.029,0.765
		c-1.242,0.718-1.498,1.812-2.764,2.291c-1.27,0.479-2.758-0.095-4.035,0.266c-1.871,0.417-2.455,1.786-3.373,3.422
		c-1.645,2.78-4.434,4.836-5.947,7.724c-1.037,1.647-1.008,3.198-1.668,5.05c-0.541,1.837-1.471,3.359-2.01,5.201
		c-0.795,2.938-0.285,5.751-0.727,8.656c-0.438,2.905,0.707,6.136-0.479,8.752c-1.289,2.748-4.6,5.569-6.406,7.886
		c-2.262,2.602-3.506,5.82-4.137,9.223c-0.219,1.45,0.131,2.609-1.104,3.443c-1.447,1.091-2.793,0.744-2.934,3.022
		c0,0,0.434,3.851,0.086,4.643c-0.693,1.586-1.922,1.139-3.07,1.604c-1.244,0.715-1.842,1.966-2.201,3.19
		c-0.818,2.703-1.256,5.607-2.18,8.439c-1.441,4.908-4.232,15.67-4.232,15.67l-1.137,5.597c-0.152,2.159,0.084,4.643-0.305,6.826
		c-0.451,2.785-2.117,5.331-1.848,8.168c0.215,2.244,1.377,4.4,1.828,6.625c0.482,2.577,0.828,4.929,1.549,7.485
		c0.711,2.436,2.553,5.482,2.672,7.978c0.098,2.257-1.355,4.541-1.236,7.034c0.129,2.612-0.361,3.73-1.426,6.338
		c-2.332,5.591-4.154,11.489-5.99,17.271c-0.443,1.593-1.01,3.195-2.078,4.49c-0.963,1.164-3.289,3.057-3.432,2.831
		c-4.855,1.655-8.916,5.381-11.605,9.693c-1.146,1.777-3.572,5.11-5.527,5.894c-2.299,0.935-4.344,0.771-6.596,2.179
		c-1.676,1.231-3.605,2.251-5.01,3.813c-1.307,1.319-2,2.816-3.438,4.027c-3.523,3.077-7.709,5.504-11.625,8.263
		c-1.673,1.232-2.473,2.859-4.004,4.318c-1.318,1.199-2.885,2.302-4.332,3.395c-2.552,2.03-5.125,3.825-8.078,5.421
		c0,0-2.263,0.767-3.313,2.384c-0.098,0.147-0.214,0.259-0.365,0.352c-0.871,0.877-0.724,1.58-0.698,2.691
		c0.057,1.426-0.281,2.891-0.067,4.3c0.207,1.332,1.387,2.014,1.658,3.183c0.19,1.174-0.208,2.006,0.465,3.215
		c0.564,0.901,1.878,1.333,1.905,2.442c0.026,1.112-1.104,1.775-1.84,2.401c-1.036,0.814-1.498,1.812-2.369,2.688
		c-0.8,0.794-1.859,1.371-2.761,1.937c-0.743,0.548-1.817,0.968-2.394,1.578c-0.865,0.957-0.388,1.785-0.354,2.977
		c0.072,1.584-0.162,2.479-1.247,3.618c-1.022,0.971-1.63,1.269-1.014,2.72c0.42,1.073,0.961,1.738,1.075,2.919
		c0.068,0.709-0.285,2.017,0.334,2.673c0.541,0.665,1.957,0.569,2.723,1.013c2.359,1.366,2.625,3.328,3.017,4.089
		c0.305,0.685,0.676,0.411,0.608,1.373c-0.026,0.559-0.375,1.067-0.646,1.571c-1.43,2.521-4.31,3.192-5.497,5.771
		c-0.986,2.162-0.112,3.826-0.217,6.062c-0.134,1.924-1.374,3.948-1.91,5.83c-0.736,2.296-1.551,4.602-0.537,6.889
		c0.399,0.837,0.868,1.589,0.249,2.603c-0.27,0.501-0.743,0.546-1.007,1.13c-0.262,0.584-0.522,1.401-0.619,2.047l-0.295,1.698
		c0.28,2.519,0.868,3.257,2.626,4.997c1.612,1.598,2.889,2.747,4.466,4.268c0.872,0.79,1.634,1.276,1.36,2.573
		c-0.274,1.298-1.201,2.42-1.461,3.876c-0.291,1.938-0.325,4.088-1.35,5.855c-1.104,1.773-3.372,3.022-3.729,5.125
		c-0.21,1.134-0.098,2.314-0.457,3.543c-0.225,0.977-0.765,1.979-0.983,3.035c-1.044,4.074-4.814,6.264-8.479,7.883
		c-1.683,0.718-3.327,1.829-5.01,2.547c-1.682,0.716-3.387-0.475-5.07,0.243c0,0-0.95,0.887-1.15,1.7
		c-0.166,0.672-1.21,1.069-2.038,1.148c-0.948,0.09-1.016-0.621-1.866-0.777c-1.443-0.102-2.914,0.752-4.31,1.125
		c-5.458,1.596-12.163,1.397-16.815,5.18c-1.211,1.069-1.678,2.428-3.29,3.058c-1.514,0.383-3.109-0.062-4.563-0.281
		c-2.788-0.45-5.493,1.239-7.041,3.772c-1.452,2.284-0.45,5.29-1.276,7.874c-0.936,2.711,0.281,5.458-0.19,8.008
		c-0.159,0.852-0.857,1.038-0.94,1.402c-0.18,0.613,0.112,1.182-0.187,1.806c-0.466,1.356-1.278,2.867-1.864,4.235
		c-1.075,2.486-3.453,5.101-5.987,6.057"/>

	<path class="road-1" fill="none" stroke="#28A5AF" stroke-width="3" stroke-miterlimit="10" d="M64.816,9.882c1.345-0.922,3.621-2.093,5.089-2.551
		c1.933-0.582,3.813,0.75,5.792,0.641c4.122-0.153,8.495-1.047,10.444,3.539c0.717,1.682,1.119,3.392,2.066,4.972
		c1.041,1.73,2.461,3.264,2.577,5.321c0,0,0.344,2.755,0.322,2.951c-0.351,3.149,2.57,4.407,2.013,7.323
		c-0.231,1.333-0.98,2.241-0.845,3.658c0.146,1.538,0.676,2.084,0.114,3.688c-0.671,1.733-1.358,2.037-0.574,3.991
		c0.489,1.385,1.397,2.134,2.434,2.988c2.568,1.902,5.261,2.602,8.213,3.512c2.457,0.72,5.831,2.308,8.051,0.548
		c2.328-1.893,5.295-7.066,6.417-1.566c0.649,3.039,2.604,4.666,5.268,6.416c4.046,2.656,11.085-1.114,12.716,1.89
		c1.168,2.152,2.874,5.094,3.916,7.262c1.477,2.961,2.104,5.764,2.171,8.978c0.017,1.428-0.203,2.881,0.062,4.407
		c0.277,1.644,1.185,2.392,2.385,3.709c1.07,1.211,2.034,2.55,3.222,3.749c1.331,1.424,1.721,2.699,2.029,3.743
		s1.739,3.832,2.192,4.205c0.773,0.582,1.15,2.038,1.424,3.026c0.65,2.443,1.367,4.939,2.249,7.3c1.186,3.048,1.579,6.53,2.99,9.438
		c0.663,1.308,3.378,0.99,3.145,2.92c-0.158,0.851-1.585,1.587-0.803,2.224c0.592,0.481,1.508,0.644,2.054,0.877
		c0.685,0.294,0.661,1.288,0.245,1.774c-0.303,0.354-1.134,1.413-2.085,2.696c-0.738,1.024-0.967,2.357-1.567,3.607
		c-1.385,2.995-2.122,4.019-5.271,4.796c-1.859,0.536-2.203,0.686-2.118,2.826c0.006,1.312,0.152,2.848,0.632,4.115
		c1.099,2.757,3.167,5.663,4.61,8.269c1.441,2.607,3.702,5.016,5.477,7.351c1.764,2.218,4.91,4.133,5.431,6.879
		c0.241,1.26-1.188,5.361-1.389,6.692c-0.202,1.332-0.293,4.442-0.326,6.593c-0.045,2.031-0.67,4.237-1.317,6.207
		c-1.358,4.543-2.737,8.85-2.286,13.578c0.283,2.954,2.425,5.375,3.062,8.296c0.834,3.738-2.033,4.966-3.17,8.055
		c-0.586,1.368-0.45,2.787-0.552,4.229c-0.174,1.924-1.042,2.841-1.83,4.586c-0.812,1.508-1.611,3.136-2.057,4.729
		c-0.478,1.238-1.164,4.048-1.164,4.048s-0.919,2.562-0.349,3.85c0.57,1.287,0.851,5.168,1.195,7.519
		c0.401,2.944,1.167,5.973,1.687,8.904c0.541,3.171,2.126,6.001,2.548,9.183c0.834,6.243-3.486,12.258-6.324,17.539
		c-3.468,6.175-8.284,9.497-13.32,14.269c-2.389,2.494-3.594,4.875-5.356,7.666c-1.871,2.923-4.907,4.882-6.918,7.578l-1.199,1.188
		c-1.831,2.083-4.653,3.783-6.906,5.188c-2.81,1.819-3.718,3.575-5.61,6.261c-1.796,2.436-5.17,3.353-7.92,4.57
		c-2.62,1.323-4.823,2.011-7.267,3.913c-2.991,2.434-5.464,5.291-8.314,7.948c-0.665,0.54-1.449,1.092-1.853,1.847
		c-0.394,0.874-0.101,1.441-0.53,1.957c-0.844,1.157-3.048,1.845-4.174,2.547c-2.809,1.819-4.9,3.686-8.004,4.937
		c-3.448,1.403-3.864,4.542-4.269,7.801c-0.963,6.174-5.615,12.462-11.219,15.023c-2.974,1.358-5.949,2.714-7.948,5.528
		c-1.369,1.917-4.292,6.172-2.449,8.105c1.458,1.531,0.697,2.548,0.327,3.427c-1.543,3.681-1.143,6.792-1.75,10.424
		c-0.45,2.789-1.622,5.522-2.19,8.319c-0.544,3.036-2.984,6.252-2.195,9.515c0.372,1.394,1.184,2.392,1.094,3.952
		c-0.078,1.676-0.806,2.82-0.872,4.614c-0.18,3.119-0.479,6.25-1.886,9.007c-0.823,1.39-1.786,2.555-1.522,4.082
		c0.124,1.298,1.195,2.508,1.675,3.775c1.228,2.864,3.668,4.66,5.348,7.242c1.785,2.456,2.804,4.385,2.022,7.441
		c-0.337,1.464-1.536,2.653-1.649,3.976c-0.124,1.204,0.542,3.168,0.666,4.47c0.125,1.301,0.141,2.73,0.384,4.017
		c0.334,2.237,0.091,3.452,1.906,4.95c2.604,2.255,5.184,4.279,8.321,5.887c1.63,0.8,3.99,1.769,5.094,3.332
		c0.694,1.006,0.734,2.674,2.029,3.743c1.049,0.976,2.631,1.303,3.894,2.015c1.272,0.834,2.321,1.808,3.713,2.628
		c2.641,1.419,5.165,2.851,6.857,5.553c1.83,2.927-1.064,5.11,0.388,7.835c1.433,2.487,4.351,5.549,6.948,6.495
		c1.489,0.574,3.144,0.417,4.621,0.873c1.487,0.574,2.118,2.181,3.454,2.413l1.414,1.059c2.681,3.085,4.215,6.638,6.789,9.851
		c3.084,3.522,5.895,6.714,9.833,9.203c2.676,1.775,5.33,3.309,6.924,6.26c1.314,2.497,2.402,5.139,3.726,7.756
		c1.562,2.597,3.726,5.253,5.749,7.684c1.891,2.327,3.432,4.684,5.003,7.396c0.727,1.363,1.692,2.701,2.975,3.652
		c1.414,1.058,3.116,1.373,4.197,2.702c2.023,2.429,2.521,5.127,2.92,8.071c0.424,3.178,2.469,5.846,5.658,6.736
		c2.939,0.794,5.817-0.316,8.709,1.199c5.887,2.9,10.783,7.921,12.588,14.31c0.919,3.372,1.731,6.87,4.249,9.493
		c1.72,1.745,3.381,2.9,4.896,5.022c1.092,1.445,2.412,2.751,3.612,4.068l5.531,7.764c1.613,1.6,2.888,2.749,4.466,4.27
		c0.871,0.791,1.633,1.274,1.36,2.571c-0.274,1.3-1.466,5.882-2.491,7.649c-1.102,1.777-3.152,2.195-3.508,4.298
		c-0.211,1.134-0.098,2.314-0.458,3.542c-0.225,0.978-0.943,2.573-1.161,3.631c-1.043,4.073-4.582,5.949-8.247,7.571
		c-1.682,0.717-3.382,1.547-5.064,2.265c-1.683,0.715-2.982-0.512-4.665,0.204c0,0-1.355,0.925-1.557,1.739
		c-0.164,0.668-1.21,1.068-2.038,1.146c-0.947,0.091-1.014-0.619-1.866-0.775c-1.442-0.103-2.912,0.755-4.31,1.126
		c-5.457,1.593-12.162,1.397-16.813,5.178c-1.212,1.071-1.273,2.389-2.885,3.019c-1.515,0.382-3.514-0.021-4.968-0.242
		c-2.789-0.453-5.197,1.452-6.747,3.985c-1.452,2.285-0.744,5.077-1.571,7.661c-0.935,2.709,0.282,5.46-0.191,8.009
		c-0.157,0.848-0.856,1.036-0.94,1.401c-0.181,0.615,0.113,1.183-0.186,1.808c-0.468,1.355-1.279,2.863-1.864,4.233
		c-1.077,2.487-3.318,5.428-5.854,6.389"/>

	<path class="road-2" fill="none" stroke="#4AD3DD" stroke-width="3" stroke-miterlimit="10" d="M221.86,122.569c2.342,3.671,7.904,1.076,11.109,2.998
		c1.016,0.618,0.846,1.349,2.252,1.058c0.773-0.234,1.359-0.766,2.125-1.078c1.461-0.537,3.361-0.639,3.512-2.402
		c0.182-1.449-1.752-5.002,0.668-4.675c2.166,0.19,3.76,3.538,4.635,0.194c0.441-2.029,0.041-3.741-0.391-5.767
		c-0.295-1.404-1.621-4.458-0.717-5.818c1.184-1.781,3.703-1.227,4.014-3.799c0.207-2.008,1.074-3.762,1.691-5.648
		c0.438-1.234,1.33-5.216,2.713-5.745c1.311-0.443,0.947,1.579,2.197,0.505c0.812-0.634,0.459-1.872,1.82-1.764
		c1.924,0.136,3.645,3.152,4.807,4.474c1.584,1.598,3.061,2.888,3.979,5.028c0.799,1.673,1.617,3.583,2.027,5.372
		c0.416,1.869-0.295,3.606,0.125,5.476l0.391,1.413c1.598,2.95,5.768,4.104,6.75,7.528c0.365,1.338,0.193,3.262,0.264,4.627
		c0.049,1.785,0.096,3.51,0.082,5.24c0.018,1.43,0.094,2.854,0.98,4.022c1.176,1.676,0.109,3.031,0.402,4.852
		c0.201,1.471,1.039,2.763,1.246,4.295c0.068,0.708,0.029,1.549,0.215,2.245c0.355,1.219,1.426,1.178,2.541,1.607
		c0.934,0.39,1.314,0.651,2.268,0.618c0.953-0.029,1.895-0.179,2.863-0.033c1.812,0.245,2.672,1.118,3.592,2.641
		c0.982,1.516,2.34,3.236,3.594,4.489c1.064,1.15,2.949,1.507,4.33,2.211c1.881,0.955,3.924,1.714,5.912,2.538
		c1.865,0.776,2.031,3.146,3.943,3.8c1.488,0.575,2.834-0.329,4.068-1.163c0.729-0.487,1.395-1.027,2.123-1.515
		c0.725-0.545,1.646-0.871,2.371-1.418l2.502-1.509c1.146-0.507,2.027-0.432,3.211-0.546c0.555-0.052,0.924-0.326,1.484-0.3
		c0.631-0.06,1.236,0.438,1.787,0.388c2.609-0.17,3.24-3.57,3.211-5.555c-0.035-1.19-0.197-2.049,0.25-3.205
		c0.432-1.314,1.383-2.2,1.57-3.568c0.291-1.937-0.6-3.759,0.428-5.528c2.262-3.793,8.035-0.843,8.768,2.666
		c0.178,1.016,0.355,2.032,0.842,2.941c0.678,1.287,1.555,1.283,2.789,1.721c2.479,0.957,4.17,3.659,5.57,5.832
		c1.213,1.874,1.518,4.229,3.396,5.562c1.877,1.332,3.627,2.994,5.355,4.42c0,0,2.895,3.015,3.707,3.714
		c0.812,0.697,4.307,2.792,4.664,3.123c1.031,0.951,2.119,2.183,3.377,2.859c0.834,0.397,1.738,0.71,2.582,1.187
		c2.027,1.238,2.588,2.934,3.193,5.103c0.59,2.012,1.18,4.021,1.928,6.019c0.848,2.226,2.918,3.063,3.99,5.108
		c1.686,3.498,1.461,7.812,2.768,11.505c0.764,2.154,2.061,3.224,0.844,5.486c-1.09,1.934-1.16,3.689-1.346,5.932
		c-0.246,4.08-1.621,8.028-2.758,11.954c-0.586,2.202,0.703,3.192,0.898,5.241c0.203,2.129-1.084,4.479-1.693,6.444
		c0,0-0.363,1.858-0.443,2.427c-0.059,0.423-0.568,1.964-0.729,2.376c-0.283,0.78-0.396,1.667-0.555,2.518
		c-0.225,1.413-0.527,2.834-0.867,4.257c-0.256,1.059-0.625,2.208-1.211,3.138c-0.279,0.423-0.754,0.865-0.988,1.327
		c-0.236,0.459-0.264,1.417-0.373,1.944c-0.273,1.298-0.508,2.592-0.824,3.854c-0.309,1.343-1.143,2.216-1.826,3.396
		c-1.096,1.853-1.418,4.309-1.695,6.401c-0.281,2.453-0.801,5.762-0.652,7.339c0.146,1.578,0.393,3.886,0.326,4.661
		c-0.203,2.376-1.881,5.31-4.426,6.146c-3.031,0.765-5.27-1.406-8.092,0.294c-2.479,1.547-5.373,3.733-6.285,6.683
		c-1.139,3.089-0.512,5.891-3.842,7.282c-1.375,0.609-2.521,1.075-3.355,2.348c-0.715,1.26-0.047,2.739-1.539,3.359l-0.986,0.222
		c-1.869,0.417-4.031,0.265-5.902,0.682c-1.988,0.428-3.531,1.764-5.641,2.207c-0.934,0.207-2.127,0.201-3.029,0.765
		c-1.242,0.718-1.498,1.812-2.764,2.291c-1.27,0.479-2.758-0.095-4.035,0.266c-1.871,0.417-2.455,1.786-3.373,3.422
		c-1.645,2.78-4.434,4.836-5.947,7.724c-1.037,1.647-1.008,3.198-1.668,5.05c-0.541,1.837-1.471,3.359-2.01,5.201
		c-0.795,2.938-0.285,5.751-0.727,8.656c-0.438,2.905,0.707,6.136-0.479,8.752c-1.289,2.748-4.6,5.569-6.406,7.886
		c-2.262,2.602-3.506,5.82-4.137,9.223c-0.219,1.45,0.131,2.609-1.104,3.443c-1.447,1.091-2.793,0.744-2.934,3.022
		c0,0,0.434,3.851,0.086,4.643c-0.693,1.586-1.922,1.139-3.07,1.604c-1.244,0.715-1.842,1.966-2.201,3.19
		c-0.818,2.703-1.256,5.607-2.18,8.439c-1.441,4.908-4.232,15.67-4.232,15.67l-1.137,5.597c-0.152,2.159,0.084,4.643-0.305,6.826
		c-0.451,2.785-2.117,5.331-1.848,8.168c0.215,2.244,1.377,4.4,1.828,6.625c0.482,2.577,0.828,4.929,1.549,7.485
		c0.711,2.436,2.553,5.482,2.672,7.978c0.098,2.257-1.355,4.541-1.236,7.034c0.129,2.612-0.361,3.73-1.426,6.338
		c-2.332,5.591-4.154,11.489-5.99,17.271c-0.443,1.593-1.01,3.195-2.078,4.49c-0.963,1.164-3.289,3.057-3.432,2.831
		c-4.855,1.655-8.916,5.381-11.605,9.693c-1.146,1.777-3.572,5.11-5.527,5.894c-2.299,0.935-4.344,0.771-6.596,2.179
		c-1.676,1.231-3.605,2.251-5.01,3.813c-1.307,1.319-2,2.816-3.438,4.027c-3.523,3.077-7.709,5.504-11.625,8.263
		c-1.673,1.232-2.473,2.859-4.004,4.318c-1.318,1.199-2.885,2.302-4.332,3.395c-2.552,2.03-5.125,3.825-8.078,5.421
		c0,0-2.263,0.767-3.313,2.384c-0.098,0.147-0.214,0.259-0.365,0.352c-0.871,0.877-0.724,1.58-0.698,2.691
		c0.057,1.426-0.281,2.891-0.067,4.3c0.207,1.332,1.387,2.014,1.658,3.183c0.19,1.174-0.208,2.006,0.465,3.215
		c0.564,0.901,1.878,1.333,1.905,2.442c0.026,1.112-1.104,1.775-1.84,2.401c-1.036,0.814-1.498,1.812-2.369,2.688
		c-0.8,0.794-1.859,1.371-2.761,1.937c-0.743,0.548-1.817,0.968-2.394,1.578c-0.865,0.957-0.388,1.785-0.354,2.977
		c0.072,1.584-0.162,2.479-1.247,3.618c-1.022,0.971-1.63,1.269-1.014,2.72c0.42,1.073,0.961,1.738,1.075,2.919
		c0.068,0.709-0.285,2.017,0.334,2.673c0.541,0.665,1.957,0.569,2.723,1.013c2.359,1.366,2.625,3.328,3.017,4.089
		c0.305,0.685,0.676,0.411,0.608,1.373c-0.026,0.559-0.375,1.067-0.646,1.571c-1.43,2.521-4.31,3.192-5.497,5.771
		c-0.986,2.162-0.112,3.826-0.217,6.062c-0.134,1.924-1.374,3.948-1.91,5.83c-0.736,2.296-1.551,4.602-0.537,6.889
		c0.399,0.837,0.868,1.589,0.249,2.603c-0.27,0.501-0.743,0.546-1.007,1.13c-0.262,0.584-0.522,1.401-0.619,2.047l-0.295,1.698
		c0.28,2.519,0.868,3.257,2.626,4.997c1.612,1.598,2.889,2.747,4.466,4.268c0.872,0.79,1.634,1.276,1.36,2.573
		c-0.274,1.298-1.201,2.42-1.461,3.876c-0.291,1.938-0.325,4.088-1.35,5.855c-1.104,1.773-3.372,3.022-3.729,5.125
		c-0.21,1.134-0.098,2.314-0.457,3.543c-0.225,0.977-0.765,1.979-0.983,3.035c-1.044,4.074-4.814,6.264-8.479,7.883
		c-1.683,0.718-3.327,1.829-5.01,2.547c-1.682,0.716-3.387-0.475-5.07,0.243c0,0-0.95,0.887-1.15,1.7
		c-0.166,0.672-1.21,1.069-2.038,1.148c-0.948,0.09-1.016-0.621-1.866-0.777c-1.443-0.102-2.914,0.752-4.31,1.125
		c-5.458,1.596-12.163,1.397-16.815,5.18c-1.211,1.069-1.678,2.428-3.29,3.058c-1.514,0.383-3.109-0.062-4.563-0.281
		c-2.788-0.45-5.493,1.239-7.041,3.772c-1.452,2.284-0.45,5.29-1.276,7.874c-0.936,2.711,0.281,5.458-0.19,8.008
		c-0.159,0.852-0.857,1.038-0.94,1.402c-0.18,0.613,0.112,1.182-0.187,1.806c-0.466,1.356-1.278,2.867-1.864,4.235
		c-1.075,2.486-3.453,5.101-5.987,6.057"/>

	<g data-point="1">
		<text transform="matrix(1 0 0 1 22 206.4458)" font-family="'OpenSans'" font-size="11">Bagaran Village, Armenia</text>
		<path fill="#515151" stroke="#FFFFFF" d="M163.652,209.945c-3.105,0-5.669-2.335-5.964-5.431c-0.153-1.595,0.325-3.154,1.346-4.39
			s2.461-2,4.058-2.151c0.192-0.019,0.385-0.027,0.576-0.027c3.106,0,5.671,2.335,5.967,5.432c0.151,1.597-0.328,3.156-1.348,4.391
			c-1.021,1.236-2.462,2-4.057,2.149C164.038,209.936,163.843,209.945,163.652,209.945z"/>
	</g>
	<g data-point="2">
		<text transform="matrix(1 0 0 1 28.7368 231.9448)" font-family="'OpenSans'" font-size="11">Araks Village, Armenia</text>
		<path fill="#515151" stroke="#FFFFFF" d="M155.652,234.945c-3.105,0-5.669-2.335-5.964-5.431c-0.153-1.595,0.325-3.154,1.346-4.39
			s2.461-2,4.058-2.151c0.192-0.019,0.385-0.027,0.576-0.027c3.106,0,5.671,2.335,5.967,5.432c0.151,1.597-0.328,3.156-1.348,4.391
			c-1.021,1.236-2.462,2-4.057,2.149C156.038,234.936,155.843,234.945,155.652,234.945z"/>
	</g>
	<g data-point="3">
		<text transform="matrix(1 0 0 1 64.6626 452.0596)" font-family="'OpenSans'" font-size="11">Araksashen, Armenia</text>
		<path fill="#515151" stroke="#FFFFFF" d="M50.652,453.945c-3.105,0-5.669-2.335-5.964-5.432c-0.153-1.595,0.325-3.153,1.346-4.39
			s2.461-2,4.058-2.151c0.192-0.019,0.385-0.027,0.576-0.027c3.106,0,5.671,2.336,5.967,5.433c0.151,1.597-0.328,3.155-1.348,4.391
			c-1.021,1.236-2.462,1.999-4.057,2.149C51.038,453.936,50.843,453.945,50.652,453.945z"/>
	</g>
	<g data-point="4">
		<text transform="matrix(1 0 0 1 1 535.5596)" font-family="'OpenSans'" font-size="11">Horadiz, Azerbaijain</text>
		<path fill="#515151" stroke="#FFFFFF" d="M117.652,538.945c-3.105,0-5.669-2.335-5.964-5.432c-0.153-1.595,0.325-3.153,1.346-4.39
			s2.461-2,4.058-2.151c0.192-0.019,0.385-0.027,0.576-0.027c3.106,0,5.671,2.336,5.967,5.433c0.151,1.597-0.328,3.155-1.348,4.391
			c-1.021,1.236-2.462,1.999-4.057,2.149C118.038,538.936,117.843,538.945,117.652,538.945z"/>
	</g>
	<g data-point="5">
		<text transform="matrix(1 0 0 1 52.5 588.5596)" font-family="'OpenSans'" font-size="11">Mazrali, Azerbaijain</text>
		<path fill="#515151" stroke="#FFFFFF" d="M165.652,590.945c-3.105,0-5.669-2.335-5.964-5.432c-0.153-1.595,0.325-3.153,1.346-4.39
			s2.461-2,4.058-2.151c0.192-0.019,0.385-0.027,0.576-0.027c3.106,0,5.671,2.336,5.967,5.433c0.151,1.597-0.328,3.155-1.348,4.391
			c-1.021,1.236-2.462,1.999-4.057,2.149C166.038,590.936,165.843,590.945,165.652,590.945z"/>
	</g>
	<g data-point="6">
		<text transform="matrix(1 0 0 1 78 612.9453)" font-family="'OpenSans'" font-size="11">Saatli, Azerbaijain</text>
		<path fill="#515151" stroke="#FFFFFF" d="M182.652,615.945c-3.105,0-5.669-2.335-5.964-5.432c-0.153-1.595,0.325-3.153,1.346-4.39
			s2.461-2,4.058-2.151c0.192-0.019,0.385-0.027,0.576-0.027c3.106,0,5.671,2.336,5.967,5.433c0.151,1.597-0.328,3.155-1.348,4.391
			c-1.021,1.236-2.462,1.999-4.057,2.149C183.038,615.936,182.843,615.945,182.652,615.945z"/>
	</g>
	<g data-point="7">
		<text transform="matrix(1 0 0 1 384.1602 175.4448)" font-family="'OpenSans'" font-size="11">Akhaldaba, Georgia</text>
		<path fill="#515151" stroke="#FFFFFF" d="M369.652,177.946c-3.105,0-5.67-2.335-5.963-5.432c-0.154-1.595,0.324-3.154,1.346-4.39
			s2.461-2,4.057-2.152c0.193-0.019,0.385-0.027,0.576-0.027c3.105,0,5.672,2.335,5.967,5.432c0.152,1.597-0.326,3.156-1.348,4.392
			s-2.463,1.999-4.057,2.149C370.037,177.937,369.844,177.946,369.652,177.946z"/>
	</g>
	<g data-point="8">
		<text transform="matrix(1 0 0 1 287 211.9448)" font-family="'OpenSans'" font-size="11">Urbnisi, Georgia</text>
		<path fill="#515151" stroke="#FFFFFF" d="M384.652,216.446c-2.846,0-5.195-2.141-5.467-4.979c-0.139-1.462,0.299-2.891,1.234-4.024
			c0.934-1.133,2.256-1.833,3.719-1.972c0.178-0.017,0.354-0.025,0.527-0.025c2.848,0,5.199,2.141,5.471,4.979
			c0.139,1.464-0.301,2.893-1.236,4.025c-0.936,1.133-2.256,1.833-3.717,1.97C385.006,216.437,384.828,216.446,384.652,216.446z"/>
	</g>
	<g data-point="9">
		<text transform="matrix(1 0 0 1 396.5078 222.9458)" font-family="'OpenSans'" font-size="11">Skra, Georgia</text>
		<path fill="#515151" stroke="#FFFFFF" d="M381.652,223.946c-3.105,0-5.67-2.335-5.963-5.432c-0.154-1.595,0.324-3.154,1.346-4.39
			s2.461-2,4.057-2.152c0.193-0.019,0.385-0.027,0.576-0.027c3.105,0,5.672,2.335,5.967,5.432c0.152,1.597-0.326,3.156-1.348,4.392
			s-2.463,1.999-4.057,2.149C382.037,223.937,381.844,223.946,381.652,223.946z"/>
	</g>
	<g data-point="10">
		<text transform="matrix(1 0 0 1 266.5 233.9448)" font-family="'OpenSans'" font-size="11">Uplistsikhe, Georgia</text>
		<path fill="#515151" stroke="#FFFFFF" d="M381.652,237.446c-2.846,0-5.195-2.141-5.467-4.979c-0.139-1.462,0.299-2.891,1.234-4.024
			c0.934-1.133,2.256-1.833,3.719-1.972c0.178-0.017,0.354-0.025,0.527-0.025c2.848,0,5.199,2.141,5.471,4.979
			c0.139,1.464-0.301,2.893-1.236,4.025c-0.936,1.133-2.256,1.833-3.717,1.97C382.006,237.437,381.828,237.446,381.652,237.446z"/>
	</g>
	<g data-point="11">
		<text transform="matrix(1 0 0 1 393.1621 244.9448)" font-family="'OpenSans'" font-size="11">Grakali, Georgia</text>
		<path fill="#515151" stroke="#FFFFFF" d="M378.652,245.446c-2.846,0-5.195-2.141-5.467-4.979c-0.139-1.462,0.299-2.891,1.234-4.024
			c0.934-1.133,2.256-1.833,3.719-1.972c0.178-0.017,0.354-0.025,0.527-0.025c2.848,0,5.199,2.141,5.471,4.979
			c0.139,1.464-0.301,2.893-1.236,4.025c-0.936,1.133-2.256,1.833-3.717,1.97C379.006,245.437,378.828,245.446,378.652,245.446z"/>
	</g>
	<g data-point="12">
		<text transform="matrix(1 0 0 1 282 492.9453)" font-family="'OpenSans'" font-size="12">Mingechevir, Azerbaijain</text>
		<path fill="#515151" stroke="#FFFFFF" d="M267.652,493.945c-3.105,0-5.67-2.335-5.963-5.432c-0.154-1.595,0.324-3.153,1.344-4.39
			c1.021-1.236,2.463-2,4.059-2.151c0.193-0.019,0.387-0.027,0.576-0.027c3.105,0,5.672,2.336,5.967,5.433
			c0.152,1.597-0.326,3.155-1.348,4.391c-1.021,1.236-2.463,1.999-4.057,2.149C268.037,493.936,267.844,493.945,267.652,493.945z"/>
	</g>
	<g data-point="13">
		<text transform="matrix(1 0 0 1 205.6621 622.9453)" font-family="'OpenSans'" font-size="11">Sabirabad, Azerbaijain</text>
		<path fill="#515151" stroke="#FFFFFF" d="M191.652,624.945c-3.105,0-5.669-2.335-5.964-5.432c-0.153-1.595,0.325-3.153,1.346-4.39
			s2.461-2,4.058-2.151c0.192-0.019,0.385-0.027,0.576-0.027c3.106,0,5.671,2.336,5.967,5.433c0.151,1.597-0.328,3.155-1.348,4.391
			c-1.021,1.236-2.462,1.999-4.057,2.149C192.038,624.936,191.843,624.945,191.652,624.945z"/>
	</g>
	<g data-point="14">
		<text transform="matrix(1 0 0 1 144.6626 698.5596)" font-family="'OpenSans'" font-size="11">Nefchala, Azerbaijain</text>
		<path fill="#515151" stroke="#FFFFFF" d="M130.652,699.945c-3.105,0-5.669-2.335-5.964-5.432c-0.153-1.595,0.325-3.153,1.346-4.39
			s2.461-2,4.058-2.151c0.192-0.019,0.385-0.027,0.576-0.027c3.106,0,5.671,2.336,5.967,5.433c0.151,1.597-0.328,3.155-1.348,4.391
			c-1.021,1.236-2.462,1.999-4.057,2.149C131.038,699.936,130.843,699.945,130.652,699.945z"/>
	</g>
</svg>
