<?xml version="1.0" encoding="utf-8"?>
<!-- Generator: Adobe Illustrator 16.0.0, SVG Export Plug-In . SVG Version: 6.00 Build 0)  -->
<!DOCTYPE svg PUBLIC "-//W3C//DTD SVG 1.1//EN" "http://www.w3.org/Graphics/SVG/1.1/DTD/svg11.dtd">
<svg version="1.1" id="Layer_1" xmlns="http://www.w3.org/2000/svg" xmlns:xlink="http://www.w3.org/1999/xlink" x="0px" y="0px"
	 width="14px" height="14px" viewBox="0.175 0.56 14 14" enable-background="new 0.175 0.56 14 14" xml:space="preserve">
<g>
	<path fill="#515151" d="M7.166,13.56c-3.105,0-5.668-2.335-5.963-5.431C1.05,6.534,1.528,4.975,2.549,3.739
		c1.021-1.236,2.461-2,4.058-2.152C6.799,1.569,6.991,1.56,7.181,1.56c3.107,0,5.673,2.335,5.967,5.432
		c0.152,1.596-0.326,3.155-1.347,4.391s-2.461,1.999-4.057,2.148C7.552,13.55,7.358,13.56,7.166,13.56z"/>
	<path fill="#FFFFFF" d="M7.181,2.56c2.547,0,4.726,1.938,4.972,4.527c0.262,2.75-1.754,5.19-4.502,5.449
		c-0.162,0.016-0.324,0.023-0.484,0.023c-2.547,0-4.721-1.936-4.967-4.525C1.935,5.286,3.951,2.845,6.701,2.583
		C6.862,2.568,7.022,2.56,7.181,2.56 M7.181,0.56L7.181,0.56c-0.222,0-0.444,0.011-0.669,0.032C4.649,0.769,2.968,1.661,1.777,3.103
		c-1.19,1.442-1.748,3.261-1.569,5.123c0.343,3.61,3.335,6.334,6.958,6.334c0.224,0,0.448-0.011,0.675-0.032
		c1.858-0.176,3.54-1.066,4.731-2.508c1.19-1.441,1.748-3.26,1.571-5.122C13.8,3.285,10.807,0.56,7.181,0.56L7.181,0.56z"/>
</g>
</svg>
