<?xml version="1.0" encoding="utf-8"?>
<!-- Generator: Adobe Illustrator 16.0.0, SVG Export Plug-In . SVG Version: 6.00 Build 0)  -->
<!DOCTYPE svg PUBLIC "-//W3C//DTD SVG 1.1//EN" "http://www.w3.org/Graphics/SVG/1.1/DTD/svg11.dtd">
<svg version="1.1" id="Layer_1" xmlns="http://www.w3.org/2000/svg" xmlns:xlink="http://www.w3.org/1999/xlink" x="0px" y="0px"
	 width="18px" height="18px" viewBox="-3.846 -1.432 18 18" enable-background="new -3.846 -1.432 18 18" xml:space="preserve">
<g>
	<path fill="#CED845" d="M5.163,15.56c-4.14,0-7.558-3.113-7.95-7.241c-0.204-2.126,0.433-4.205,1.794-5.853
		c1.361-1.647,3.282-2.666,5.41-2.87C4.674-0.428,4.929-0.44,5.182-0.44c4.143,0,7.564,3.114,7.957,7.244
		c0.202,2.128-0.436,4.206-1.796,5.854c-1.361,1.647-3.282,2.665-5.409,2.865C5.676,15.548,5.418,15.56,5.163,15.56z"/>
	<path fill="#FFFFFF" d="M5.182,0.56c3.566,0,6.617,2.713,6.961,6.338c0.365,3.849-2.456,7.266-6.304,7.629
		c-0.228,0.021-0.454,0.032-0.677,0.032c-3.566,0-6.61-2.709-6.955-6.336C-2.161,4.376,0.661,0.96,4.512,0.592
		C4.736,0.57,4.96,0.56,5.182,0.56 M5.183-1.44L5.183-1.44c-0.286,0-0.575,0.014-0.86,0.041C1.927-1.17-0.234-0.024-1.765,1.829
		c-1.531,1.854-2.248,4.192-2.018,6.586c0.441,4.643,4.287,8.145,8.945,8.145c0.288,0,0.58-0.014,0.868-0.041
		c2.39-0.226,4.551-1.371,6.083-3.225c1.53-1.853,2.248-4.191,2.021-6.584C13.692,2.063,9.844-1.44,5.183-1.44L5.183-1.44z"/>
</g>
</svg>
